<svg width="343" height="121" viewBox="0 0 343 121" fill="none" xmlns="http://www.w3.org/2000/svg">
<path fill-rule="evenodd" clip-rule="evenodd" d="M267.682 18.2664C268.245 18.2664 268.7 17.8107 268.7 17.2486C268.7 16.6865 268.245 16.2308 267.682 16.2308C267.12 16.2308 266.665 16.6865 266.665 17.2486C266.665 17.8107 267.12 18.2664 267.682 18.2664ZM267.682 20.3019C267.12 20.3019 266.665 20.7576 266.665 21.3197V25.391C266.665 25.9531 267.12 26.4088 267.682 26.4088C268.245 26.4088 268.7 25.9531 268.7 25.391V21.3197C268.7 20.7576 268.245 20.3019 267.682 20.3019Z" fill="#111111" fill-opacity="0.67"/>
<path fill-rule="evenodd" clip-rule="evenodd" d="M154.706 18.2664C155.268 18.2664 155.724 17.8107 155.724 17.2486C155.724 16.6865 155.268 16.2308 154.706 16.2308C154.144 16.2308 153.689 16.6865 153.689 17.2486C153.689 17.8107 154.144 18.2664 154.706 18.2664ZM154.706 20.3019C154.144 20.3019 153.688 20.7576 153.688 21.3197V25.391C153.688 25.9531 154.144 26.4088 154.706 26.4088C155.268 26.4088 155.724 25.9531 155.724 25.391V21.3197C155.724 20.7576 155.268 20.3019 154.706 20.3019Z" fill="#111111" fill-opacity="0.67"/>
<path d="M1.0177 30.4794H343" stroke="#292929" stroke-opacity="0.08" stroke-width="1.0178" stroke-dasharray="2.04 2.04"/>
<path d="M1.0177 53.8889H343" stroke="#292929" stroke-opacity="0.08" stroke-width="1.0178" stroke-dasharray="2.04 2.04"/>
<path d="M1.0177 77.2985H343" stroke="#292929" stroke-opacity="0.08" stroke-width="1.0178" stroke-dasharray="2.04 2.04"/>
<path d="M1.0177 100.708H341.982" stroke="#8099FF" stroke-width="1.0178" stroke-dasharray="2.04 2.04"/>
<path d="M3.57249 37.192C4.39284 37.192 5.08529 37.3773 5.64983 37.7477C6.21437 38.1094 6.64219 38.6343 6.93328 39.3223C7.22437 40.0103 7.36992 40.8439 7.36992 41.823C7.36992 42.8639 7.18909 43.7416 6.82743 44.4561C6.47459 45.1706 5.98062 45.7087 5.34551 46.0703C4.7104 46.432 3.97385 46.6128 3.13586 46.6128C2.72127 46.6128 2.32433 46.5731 1.94502 46.4937C1.57454 46.4143 1.23935 46.2864 0.939433 46.11L1.32315 45.3426C1.56131 45.5014 1.83476 45.6161 2.1435 45.6866C2.46105 45.7484 2.78743 45.7792 3.12262 45.7792C4.11939 45.7792 4.91328 45.4617 5.50429 44.8266C6.10411 44.1915 6.40402 43.2432 6.40402 41.9818C6.40402 41.7789 6.39079 41.5364 6.36433 41.2541C6.34669 40.9718 6.29817 40.6895 6.21878 40.4073L6.54957 40.6587C6.46136 41.1174 6.27171 41.5099 5.98062 41.8363C5.69835 42.1538 5.34551 42.3964 4.9221 42.564C4.50752 42.7316 4.04441 42.8154 3.5328 42.8154C2.92415 42.8154 2.38166 42.7007 1.90533 42.4714C1.43782 42.242 1.07175 41.9201 0.807119 41.5055C0.54249 41.0909 0.410175 40.6013 0.410175 40.0368C0.410175 39.4546 0.5469 38.9518 0.82035 38.5284C1.0938 38.105 1.46869 37.7786 1.94502 37.5493C2.43018 37.3111 2.97267 37.192 3.57249 37.192ZM3.61219 37.9991C3.17114 37.9991 2.77861 38.0829 2.43459 38.2505C2.09939 38.4093 1.83476 38.6387 1.6407 38.9386C1.44664 39.2385 1.34961 39.5957 1.34961 40.0103C1.34961 40.619 1.5569 41.1041 1.97149 41.4658C2.39489 41.8274 2.96385 42.0083 3.67834 42.0083C4.15468 42.0083 4.56926 41.9201 4.9221 41.7436C5.28376 41.5672 5.56162 41.3246 5.75568 41.0159C5.95857 40.7072 6.06001 40.3632 6.06001 39.9839C6.06001 39.6398 5.96739 39.3179 5.78215 39.018C5.59691 38.7181 5.32346 38.4755 4.9618 38.2902C4.60014 38.0962 4.15027 37.9991 3.61219 37.9991ZM12.4425 46.6128C11.728 46.6128 11.0929 46.4276 10.5372 46.0571C9.98148 45.6778 9.54484 45.1397 9.22729 44.4429C8.90973 43.7372 8.75095 42.8904 8.75095 41.9024C8.75095 40.9145 8.90973 40.0721 9.22729 39.3752C9.54484 38.6695 9.98148 38.1315 10.5372 37.761C11.0929 37.3817 11.728 37.192 12.4425 37.192C13.157 37.192 13.7921 37.3817 14.3479 37.761C14.9036 38.1315 15.3402 38.6695 15.6578 39.3752C15.9841 40.0721 16.1473 40.9145 16.1473 41.9024C16.1473 42.8904 15.9841 43.7372 15.6578 44.4429C15.3402 45.1397 14.9036 45.6778 14.3479 46.0571C13.7921 46.4276 13.157 46.6128 12.4425 46.6128ZM12.4425 45.7395C12.9894 45.7395 13.4658 45.594 13.8715 45.3029C14.2773 45.003 14.5948 44.5708 14.8242 44.0062C15.0535 43.4329 15.1682 42.7316 15.1682 41.9024C15.1682 41.0733 15.0535 40.3764 14.8242 39.8119C14.5948 39.2385 14.2773 38.8063 13.8715 38.5152C13.4658 38.2153 12.9894 38.0653 12.4425 38.0653C11.9133 38.0653 11.4413 38.2153 11.0268 38.5152C10.6122 38.8063 10.2902 39.2385 10.0609 39.8119C9.83152 40.3764 9.71685 41.0733 9.71685 41.9024C9.71685 42.7316 9.83152 43.4329 10.0609 44.0062C10.2902 44.5708 10.6122 45.003 11.0268 45.3029C11.4413 45.594 11.9133 45.7395 12.4425 45.7395ZM21.2032 46.6128C20.4887 46.6128 19.8536 46.4276 19.2979 46.0571C18.7422 45.6778 18.3055 45.1397 17.988 44.4429C17.6704 43.7372 17.5116 42.8904 17.5116 41.9024C17.5116 40.9145 17.6704 40.0721 17.988 39.3752C18.3055 38.6695 18.7422 38.1315 19.2979 37.761C19.8536 37.3817 20.4887 37.192 21.2032 37.192C21.9177 37.192 22.5528 37.3817 23.1085 37.761C23.6643 38.1315 24.1009 38.6695 24.4184 39.3752C24.7448 40.0721 24.908 40.9145 24.908 41.9024C24.908 42.8904 24.7448 43.7372 24.4184 44.4429C24.1009 45.1397 23.6643 45.6778 23.1085 46.0571C22.5528 46.4276 21.9177 46.6128 21.2032 46.6128ZM21.2032 45.7395C21.7501 45.7395 22.2264 45.594 22.6322 45.3029C23.038 45.003 23.3555 44.5708 23.5849 44.0062C23.8142 43.4329 23.9289 42.7316 23.9289 41.9024C23.9289 41.0733 23.8142 40.3764 23.5849 39.8119C23.3555 39.2385 23.038 38.8063 22.6322 38.5152C22.2264 38.2153 21.7501 38.0653 21.2032 38.0653C20.6739 38.0653 20.202 38.2153 19.7874 38.5152C19.3728 38.8063 19.0509 39.2385 18.8215 39.8119C18.5922 40.3764 18.4775 41.0733 18.4775 41.9024C18.4775 42.7316 18.5922 43.4329 18.8215 44.0062C19.0509 44.5708 19.3728 45.003 19.7874 45.3029C20.202 45.594 20.6739 45.7395 21.2032 45.7395ZM31.115 46.6128C30.4182 46.6128 29.7742 46.4981 29.1832 46.2688C28.5922 46.0306 28.0806 45.6999 27.6484 45.2764C27.2161 44.853 26.8765 44.3547 26.6295 43.7813C26.3914 43.2079 26.2723 42.5816 26.2723 41.9024C26.2723 41.2232 26.3914 40.5969 26.6295 40.0236C26.8765 39.4502 27.2161 38.9518 27.6484 38.5284C28.0894 38.105 28.6054 37.7786 29.1964 37.5493C29.7875 37.3111 30.4314 37.192 31.1282 37.192C31.7986 37.192 32.4293 37.3067 33.0203 37.536C33.6113 37.7566 34.1097 38.0918 34.5155 38.5416L33.8936 39.1635C33.5143 38.7754 33.0953 38.4975 32.6366 38.3299C32.1779 38.1535 31.684 38.0653 31.1547 38.0653C30.599 38.0653 30.083 38.1623 29.6066 38.3564C29.1303 38.5416 28.7157 38.8107 28.3629 39.1635C28.01 39.5075 27.7322 39.9133 27.5293 40.3808C27.3352 40.8395 27.2382 41.3467 27.2382 41.9024C27.2382 42.4581 27.3352 42.9698 27.5293 43.4373C27.7322 43.896 28.01 44.3017 28.3629 44.6546C28.7157 44.9986 29.1303 45.2676 29.6066 45.4617C30.083 45.6469 30.599 45.7395 31.1547 45.7395C31.684 45.7395 32.1779 45.6513 32.6366 45.4749C33.0953 45.2985 33.5143 45.0162 33.8936 44.6281L34.5155 45.25C34.1097 45.6999 33.6113 46.0395 33.0203 46.2688C32.4293 46.4981 31.7942 46.6128 31.115 46.6128ZM34.8882 46.5334L39.1223 37.2714H40.0882L44.3223 46.5334H43.2902L39.4002 37.8404H39.7971L35.9071 46.5334H34.8882ZM36.5554 44.0591L36.8465 43.2653H42.2317L42.5228 44.0591H36.5554ZM45.8544 46.5334V37.2714H46.8336V45.6866H52.0203V46.5334H45.8544Z" fill="#2C2B2B"/>
<path d="M4.0763 117.797V109.614L4.46714 110.029H2.06105V109.247H4.95568V117.797H4.0763ZM6.84059 117.797V117.174L10.3948 113.693C10.7205 113.376 10.9647 113.099 11.1276 112.863C11.2904 112.618 11.4004 112.39 11.4574 112.179C11.5144 111.967 11.5428 111.767 11.5428 111.58C11.5428 111.083 11.3719 110.693 11.0299 110.408C10.696 110.123 10.1993 109.98 9.53981 109.98C9.03498 109.98 8.58715 110.057 8.19631 110.212C7.81361 110.367 7.48385 110.607 7.207 110.933L6.58411 110.395C6.91795 110.005 7.34542 109.703 7.86654 109.492C8.38766 109.28 8.96984 109.174 9.61309 109.174C10.1912 109.174 10.692 109.268 11.1154 109.455C11.5388 109.634 11.8645 109.899 12.0925 110.249C12.3286 110.599 12.4467 111.01 12.4467 111.482C12.4467 111.759 12.4059 112.032 12.3245 112.301C12.2512 112.569 12.1128 112.854 11.9093 113.156C11.7138 113.449 11.4248 113.783 11.0421 114.157L7.78105 117.357L7.53677 117.015H12.8375V117.797H6.84059ZM14.6007 112.655C14.4215 112.655 14.2668 112.59 14.1365 112.459C14.0144 112.329 13.9533 112.17 13.9533 111.983C13.9533 111.788 14.0144 111.629 14.1365 111.507C14.2668 111.385 14.4215 111.324 14.6007 111.324C14.7798 111.324 14.9304 111.385 15.0526 111.507C15.1828 111.629 15.248 111.788 15.248 111.983C15.248 112.17 15.1828 112.329 15.0526 112.459C14.9304 112.59 14.7798 112.655 14.6007 112.655ZM14.6007 117.858C14.4215 117.858 14.2668 117.793 14.1365 117.662C14.0144 117.532 13.9533 117.373 13.9533 117.186C13.9533 116.991 14.0144 116.832 14.1365 116.71C14.2668 116.588 14.4215 116.527 14.6007 116.527C14.7798 116.527 14.9304 116.588 15.0526 116.71C15.1828 116.832 15.248 116.991 15.248 117.186C15.248 117.373 15.1828 117.532 15.0526 117.662C14.9304 117.793 14.7798 117.858 14.6007 117.858ZM19.937 117.87C19.2774 117.87 18.6912 117.699 18.1782 117.357C17.6652 117.007 17.2622 116.51 16.9691 115.867C16.6759 115.216 16.5294 114.434 16.5294 113.522C16.5294 112.61 16.6759 111.833 16.9691 111.189C17.2622 110.538 17.6652 110.041 18.1782 109.699C18.6912 109.349 19.2774 109.174 19.937 109.174C20.5965 109.174 21.1828 109.349 21.6957 109.699C22.2087 110.041 22.6118 110.538 22.9049 111.189C23.2062 111.833 23.3568 112.61 23.3568 113.522C23.3568 114.434 23.2062 115.216 22.9049 115.867C22.6118 116.51 22.2087 117.007 21.6957 117.357C21.1828 117.699 20.5965 117.87 19.937 117.87ZM19.937 117.064C20.4418 117.064 20.8815 116.93 21.256 116.661C21.6306 116.384 21.9237 115.985 22.1354 115.464C22.3471 114.935 22.453 114.287 22.453 113.522C22.453 112.757 22.3471 112.113 22.1354 111.592C21.9237 111.063 21.6306 110.664 21.256 110.395C20.8815 110.119 20.4418 109.98 19.937 109.98C19.4484 109.98 19.0128 110.119 18.6301 110.395C18.2474 110.664 17.9502 111.063 17.7385 111.592C17.5268 112.113 17.421 112.757 17.421 113.522C17.421 114.287 17.5268 114.935 17.7385 115.464C17.9502 115.985 18.2474 116.384 18.6301 116.661C19.0128 116.93 19.4484 117.064 19.937 117.064ZM28.0237 117.87C27.3642 117.87 26.7779 117.699 26.265 117.357C25.752 117.007 25.349 116.51 25.0558 115.867C24.7627 115.216 24.6161 114.434 24.6161 113.522C24.6161 112.61 24.7627 111.833 25.0558 111.189C25.349 110.538 25.752 110.041 26.265 109.699C26.7779 109.349 27.3642 109.174 28.0237 109.174C28.6833 109.174 29.2695 109.349 29.7825 109.699C30.2955 110.041 30.6985 110.538 30.9917 111.189C31.2929 111.833 31.4436 112.61 31.4436 113.522C31.4436 114.434 31.2929 115.216 30.9917 115.867C30.6985 116.51 30.2955 117.007 29.7825 117.357C29.2695 117.699 28.6833 117.87 28.0237 117.87ZM28.0237 117.064C28.5286 117.064 28.9683 116.93 29.3428 116.661C29.7174 116.384 30.0105 115.985 30.2222 115.464C30.4339 114.935 30.5398 114.287 30.5398 113.522C30.5398 112.757 30.4339 112.113 30.2222 111.592C30.0105 111.063 29.7174 110.664 29.3428 110.395C28.9683 110.119 28.5286 109.98 28.0237 109.98C27.5352 109.98 27.0996 110.119 26.7169 110.395C26.3342 110.664 26.037 111.063 25.8253 111.592C25.6136 112.113 25.5077 112.757 25.5077 113.522C25.5077 114.287 25.6136 114.935 25.8253 115.464C26.037 115.985 26.3342 116.384 26.7169 116.661C27.0996 116.93 27.5352 117.064 28.0237 117.064Z" fill="#2C2B2B"/>
<path d="M88.0352 117.87C87.278 117.87 86.6388 117.703 86.1177 117.369C85.5966 117.027 85.2017 116.539 84.933 115.904C84.6643 115.26 84.5299 114.491 84.5299 113.595C84.5299 112.626 84.6928 111.816 85.0185 111.165C85.3523 110.505 85.8123 110.009 86.3986 109.675C86.9849 109.341 87.6648 109.174 88.4383 109.174C88.821 109.174 89.1874 109.211 89.5375 109.284C89.8876 109.357 90.197 109.475 90.4658 109.638L90.1116 110.347C89.8917 110.2 89.6393 110.098 89.3543 110.041C89.0693 109.976 88.7681 109.943 88.4505 109.943C87.5304 109.943 86.7935 110.237 86.2398 110.823C85.6943 111.409 85.4215 112.284 85.4215 113.449C85.4215 113.628 85.4297 113.852 85.4459 114.121C85.4704 114.381 85.5192 114.642 85.5925 114.902L85.2872 114.67C85.3767 114.247 85.5518 113.888 85.8123 113.595C86.0729 113.294 86.3986 113.066 86.7894 112.911C87.1803 112.757 87.6078 112.679 88.0719 112.679C88.6418 112.679 89.1426 112.785 89.5742 112.997C90.0057 113.209 90.3436 113.506 90.5879 113.888C90.8322 114.271 90.9543 114.723 90.9543 115.244C90.9543 115.773 90.8281 116.238 90.5757 116.637C90.3233 117.027 89.9731 117.333 89.5253 117.553C89.0856 117.764 88.5889 117.87 88.0352 117.87ZM87.9986 117.125C88.4057 117.125 88.764 117.052 89.0734 116.905C89.3909 116.751 89.6393 116.535 89.8184 116.258C89.9976 115.973 90.0871 115.643 90.0871 115.269C90.0871 114.707 89.8917 114.259 89.5009 113.925C89.1182 113.591 88.5971 113.424 87.9375 113.424C87.4978 113.424 87.1151 113.506 86.7894 113.669C86.4637 113.831 86.2073 114.055 86.02 114.34C85.8327 114.617 85.7391 114.935 85.7391 115.293C85.7391 115.602 85.8246 115.9 85.9956 116.185C86.1665 116.461 86.419 116.689 86.7528 116.869C87.0948 117.04 87.51 117.125 87.9986 117.125ZM92.6321 112.655C92.453 112.655 92.2983 112.59 92.168 112.459C92.0459 112.329 91.9848 112.17 91.9848 111.983C91.9848 111.788 92.0459 111.629 92.168 111.507C92.2983 111.385 92.453 111.324 92.6321 111.324C92.8113 111.324 92.9619 111.385 93.0841 111.507C93.2143 111.629 93.2795 111.788 93.2795 111.983C93.2795 112.17 93.2143 112.329 93.0841 112.459C92.9619 112.59 92.8113 112.655 92.6321 112.655ZM92.6321 117.858C92.453 117.858 92.2983 117.793 92.168 117.662C92.0459 117.532 91.9848 117.373 91.9848 117.186C91.9848 116.991 92.0459 116.832 92.168 116.71C92.2983 116.588 92.453 116.527 92.6321 116.527C92.8113 116.527 92.9619 116.588 93.0841 116.71C93.2143 116.832 93.2795 116.991 93.2795 117.186C93.2795 117.373 93.2143 117.532 93.0841 117.662C92.9619 117.793 92.8113 117.858 92.6321 117.858ZM97.9685 117.87C97.3089 117.87 96.7227 117.699 96.2097 117.357C95.6967 117.007 95.2937 116.51 95.0005 115.867C94.7074 115.216 94.5609 114.434 94.5609 113.522C94.5609 112.61 94.7074 111.833 95.0005 111.189C95.2937 110.538 95.6967 110.041 96.2097 109.699C96.7227 109.349 97.3089 109.174 97.9685 109.174C98.628 109.174 99.2143 109.349 99.7272 109.699C100.24 110.041 100.643 110.538 100.936 111.189C101.238 111.833 101.388 112.61 101.388 113.522C101.388 114.434 101.238 115.216 100.936 115.867C100.643 116.51 100.24 117.007 99.7272 117.357C99.2143 117.699 98.628 117.87 97.9685 117.87ZM97.9685 117.064C98.4733 117.064 98.913 116.93 99.2875 116.661C99.6621 116.384 99.9552 115.985 100.167 115.464C100.379 114.935 100.484 114.287 100.484 113.522C100.484 112.757 100.379 112.113 100.167 111.592C99.9552 111.063 99.6621 110.664 99.2875 110.395C98.913 110.119 98.4733 109.98 97.9685 109.98C97.4799 109.98 97.0443 110.119 96.6616 110.395C96.2789 110.664 95.9817 111.063 95.77 111.592C95.5583 112.113 95.4524 112.757 95.4524 113.522C95.4524 114.287 95.5583 114.935 95.77 115.464C95.9817 115.985 96.2789 116.384 96.6616 116.661C97.0443 116.93 97.4799 117.064 97.9685 117.064ZM106.055 117.87C105.396 117.87 104.809 117.699 104.296 117.357C103.783 117.007 103.38 116.51 103.087 115.867C102.794 115.216 102.648 114.434 102.648 113.522C102.648 112.61 102.794 111.833 103.087 111.189C103.38 110.538 103.783 110.041 104.296 109.699C104.809 109.349 105.396 109.174 106.055 109.174C106.715 109.174 107.301 109.349 107.814 109.699C108.327 110.041 108.73 110.538 109.023 111.189C109.324 111.833 109.475 112.61 109.475 113.522C109.475 114.434 109.324 115.216 109.023 115.867C108.73 116.51 108.327 117.007 107.814 117.357C107.301 117.699 106.715 117.87 106.055 117.87ZM106.055 117.064C106.56 117.064 107 116.93 107.374 116.661C107.749 116.384 108.042 115.985 108.254 115.464C108.465 114.935 108.571 114.287 108.571 113.522C108.571 112.757 108.465 112.113 108.254 111.592C108.042 111.063 107.749 110.664 107.374 110.395C107 110.119 106.56 109.98 106.055 109.98C105.567 109.98 105.131 110.119 104.748 110.395C104.366 110.664 104.068 111.063 103.857 111.592C103.645 112.113 103.539 112.757 103.539 113.522C103.539 114.287 103.645 114.935 103.857 115.464C104.068 115.985 104.366 116.384 104.748 116.661C105.131 116.93 105.567 117.064 106.055 117.064Z" fill="#2C2B2B"/>
<path d="M168.939 117.797V109.614L169.33 110.029H166.924V109.247H169.819V117.797H168.939ZM171.704 117.797V117.174L175.258 113.693C175.584 113.376 175.828 113.099 175.991 112.863C176.154 112.618 176.263 112.39 176.32 112.179C176.377 111.967 176.406 111.767 176.406 111.58C176.406 111.083 176.235 110.693 175.893 110.408C175.559 110.123 175.062 109.98 174.403 109.98C173.898 109.98 173.45 110.057 173.059 110.212C172.677 110.367 172.347 110.607 172.07 110.933L171.447 110.395C171.781 110.005 172.209 109.703 172.73 109.492C173.251 109.28 173.833 109.174 174.476 109.174C175.054 109.174 175.555 109.268 175.978 109.455C176.402 109.634 176.728 109.899 176.956 110.249C177.192 110.599 177.31 111.01 177.31 111.482C177.31 111.759 177.269 112.032 177.188 112.301C177.114 112.569 176.976 112.854 176.772 113.156C176.577 113.449 176.288 113.783 175.905 114.157L172.644 117.357L172.4 117.015H177.701V117.797H171.704ZM179.464 112.655C179.285 112.655 179.13 112.59 179 112.459C178.877 112.329 178.816 112.17 178.816 111.983C178.816 111.788 178.877 111.629 179 111.507C179.13 111.385 179.285 111.324 179.464 111.324C179.643 111.324 179.794 111.385 179.916 111.507C180.046 111.629 180.111 111.788 180.111 111.983C180.111 112.17 180.046 112.329 179.916 112.459C179.794 112.59 179.643 112.655 179.464 112.655ZM179.464 117.858C179.285 117.858 179.13 117.793 179 117.662C178.877 117.532 178.816 117.373 178.816 117.186C178.816 116.991 178.877 116.832 179 116.71C179.13 116.588 179.285 116.527 179.464 116.527C179.643 116.527 179.794 116.588 179.916 116.71C180.046 116.832 180.111 116.991 180.111 117.186C180.111 117.373 180.046 117.532 179.916 117.662C179.794 117.793 179.643 117.858 179.464 117.858ZM184.8 117.87C184.141 117.87 183.554 117.699 183.041 117.357C182.528 117.007 182.125 116.51 181.832 115.867C181.539 115.216 181.392 114.434 181.392 113.522C181.392 112.61 181.539 111.833 181.832 111.189C182.125 110.538 182.528 110.041 183.041 109.699C183.554 109.349 184.141 109.174 184.8 109.174C185.46 109.174 186.046 109.349 186.559 109.699C187.072 110.041 187.475 110.538 187.768 111.189C188.069 111.833 188.22 112.61 188.22 113.522C188.22 114.434 188.069 115.216 187.768 115.867C187.475 116.51 187.072 117.007 186.559 117.357C186.046 117.699 185.46 117.87 184.8 117.87ZM184.8 117.064C185.305 117.064 185.745 116.93 186.119 116.661C186.494 116.384 186.787 115.985 186.999 115.464C187.21 114.935 187.316 114.287 187.316 113.522C187.316 112.757 187.21 112.113 186.999 111.592C186.787 111.063 186.494 110.664 186.119 110.395C185.745 110.119 185.305 109.98 184.8 109.98C184.312 109.98 183.876 110.119 183.493 110.395C183.11 110.664 182.813 111.063 182.602 111.592C182.39 112.113 182.284 112.757 182.284 113.522C182.284 114.287 182.39 114.935 182.602 115.464C182.813 115.985 183.11 116.384 183.493 116.661C183.876 116.93 184.312 117.064 184.8 117.064ZM192.887 117.87C192.227 117.87 191.641 117.699 191.128 117.357C190.615 117.007 190.212 116.51 189.919 115.867C189.626 115.216 189.479 114.434 189.479 113.522C189.479 112.61 189.626 111.833 189.919 111.189C190.212 110.538 190.615 110.041 191.128 109.699C191.641 109.349 192.227 109.174 192.887 109.174C193.546 109.174 194.133 109.349 194.646 109.699C195.159 110.041 195.562 110.538 195.855 111.189C196.156 111.833 196.307 112.61 196.307 113.522C196.307 114.434 196.156 115.216 195.855 115.867C195.562 116.51 195.159 117.007 194.646 117.357C194.133 117.699 193.546 117.87 192.887 117.87ZM192.887 117.064C193.392 117.064 193.831 116.93 194.206 116.661C194.58 116.384 194.874 115.985 195.085 115.464C195.297 114.935 195.403 114.287 195.403 113.522C195.403 112.757 195.297 112.113 195.085 111.592C194.874 111.063 194.58 110.664 194.206 110.395C193.831 110.119 193.392 109.98 192.887 109.98C192.398 109.98 191.963 110.119 191.58 110.395C191.197 110.664 190.9 111.063 190.688 111.592C190.477 112.113 190.371 112.757 190.371 113.522C190.371 114.287 190.477 114.935 190.688 115.464C190.9 115.985 191.197 116.384 191.58 116.661C191.963 116.93 192.398 117.064 192.887 117.064Z" fill="#2C2B2B"/>
<path d="M253.874 117.87C253.117 117.87 252.478 117.703 251.956 117.369C251.435 117.027 251.04 116.539 250.772 115.904C250.503 115.26 250.369 114.491 250.369 113.595C250.369 112.626 250.531 111.816 250.857 111.165C251.191 110.505 251.651 110.009 252.237 109.675C252.824 109.341 253.503 109.174 254.277 109.174C254.66 109.174 255.026 109.211 255.376 109.284C255.726 109.357 256.036 109.475 256.304 109.638L255.95 110.347C255.73 110.2 255.478 110.098 255.193 110.041C254.908 109.976 254.607 109.943 254.289 109.943C253.369 109.943 252.632 110.237 252.079 110.823C251.533 111.409 251.26 112.284 251.26 113.449C251.26 113.628 251.268 113.852 251.285 114.121C251.309 114.381 251.358 114.642 251.431 114.902L251.126 114.67C251.215 114.247 251.391 113.888 251.651 113.595C251.912 113.294 252.237 113.066 252.628 112.911C253.019 112.757 253.446 112.679 253.911 112.679C254.481 112.679 254.981 112.785 255.413 112.997C255.844 113.209 256.182 113.506 256.427 113.888C256.671 114.271 256.793 114.723 256.793 115.244C256.793 115.773 256.667 116.238 256.414 116.637C256.162 117.027 255.812 117.333 255.364 117.553C254.924 117.764 254.428 117.87 253.874 117.87ZM253.837 117.125C254.244 117.125 254.603 117.052 254.912 116.905C255.23 116.751 255.478 116.535 255.657 116.258C255.836 115.973 255.926 115.643 255.926 115.269C255.926 114.707 255.73 114.259 255.34 113.925C254.957 113.591 254.436 113.424 253.776 113.424C253.337 113.424 252.954 113.506 252.628 113.669C252.302 113.831 252.046 114.055 251.859 114.34C251.671 114.617 251.578 114.935 251.578 115.293C251.578 115.602 251.663 115.9 251.834 116.185C252.005 116.461 252.258 116.689 252.592 116.869C252.933 117.04 253.349 117.125 253.837 117.125ZM258.471 112.655C258.292 112.655 258.137 112.59 258.007 112.459C257.885 112.329 257.824 112.17 257.824 111.983C257.824 111.788 257.885 111.629 258.007 111.507C258.137 111.385 258.292 111.324 258.471 111.324C258.65 111.324 258.801 111.385 258.923 111.507C259.053 111.629 259.118 111.788 259.118 111.983C259.118 112.17 259.053 112.329 258.923 112.459C258.801 112.59 258.65 112.655 258.471 112.655ZM258.471 117.858C258.292 117.858 258.137 117.793 258.007 117.662C257.885 117.532 257.824 117.373 257.824 117.186C257.824 116.991 257.885 116.832 258.007 116.71C258.137 116.588 258.292 116.527 258.471 116.527C258.65 116.527 258.801 116.588 258.923 116.71C259.053 116.832 259.118 116.991 259.118 117.186C259.118 117.373 259.053 117.532 258.923 117.662C258.801 117.793 258.65 117.858 258.471 117.858ZM263.807 117.87C263.148 117.87 262.561 117.699 262.048 117.357C261.535 117.007 261.132 116.51 260.839 115.867C260.546 115.216 260.4 114.434 260.4 113.522C260.4 112.61 260.546 111.833 260.839 111.189C261.132 110.538 261.535 110.041 262.048 109.699C262.561 109.349 263.148 109.174 263.807 109.174C264.467 109.174 265.053 109.349 265.566 109.699C266.079 110.041 266.482 110.538 266.775 111.189C267.076 111.833 267.227 112.61 267.227 113.522C267.227 114.434 267.076 115.216 266.775 115.867C266.482 116.51 266.079 117.007 265.566 117.357C265.053 117.699 264.467 117.87 263.807 117.87ZM263.807 117.064C264.312 117.064 264.752 116.93 265.126 116.661C265.501 116.384 265.794 115.985 266.006 115.464C266.217 114.935 266.323 114.287 266.323 113.522C266.323 112.757 266.217 112.113 266.006 111.592C265.794 111.063 265.501 110.664 265.126 110.395C264.752 110.119 264.312 109.98 263.807 109.98C263.319 109.98 262.883 110.119 262.5 110.395C262.118 110.664 261.82 111.063 261.609 111.592C261.397 112.113 261.291 112.757 261.291 113.522C261.291 114.287 261.397 114.935 261.609 115.464C261.82 115.985 262.118 116.384 262.5 116.661C262.883 116.93 263.319 117.064 263.807 117.064ZM271.894 117.87C271.234 117.87 270.648 117.699 270.135 117.357C269.622 117.007 269.219 116.51 268.926 115.867C268.633 115.216 268.486 114.434 268.486 113.522C268.486 112.61 268.633 111.833 268.926 111.189C269.219 110.538 269.622 110.041 270.135 109.699C270.648 109.349 271.234 109.174 271.894 109.174C272.553 109.174 273.14 109.349 273.653 109.699C274.166 110.041 274.569 110.538 274.862 111.189C275.163 111.833 275.314 112.61 275.314 113.522C275.314 114.434 275.163 115.216 274.862 115.867C274.569 116.51 274.166 117.007 273.653 117.357C273.14 117.699 272.553 117.87 271.894 117.87ZM271.894 117.064C272.399 117.064 272.838 116.93 273.213 116.661C273.588 116.384 273.881 115.985 274.092 115.464C274.304 114.935 274.41 114.287 274.41 113.522C274.41 112.757 274.304 112.113 274.092 111.592C273.881 111.063 273.588 110.664 273.213 110.395C272.838 110.119 272.399 109.98 271.894 109.98C271.405 109.98 270.97 110.119 270.587 110.395C270.204 110.664 269.907 111.063 269.695 111.592C269.484 112.113 269.378 112.757 269.378 113.522C269.378 114.287 269.484 114.935 269.695 115.464C269.907 115.985 270.204 116.384 270.587 116.661C270.97 116.93 271.405 117.064 271.894 117.064Z" fill="#2C2B2B"/>
<path d="M155.324 32.8947V101.523H152.937V32.8947C152.937 32.2356 153.472 31.7013 154.131 31.7013C154.79 31.7013 155.324 32.2356 155.324 32.8947Z" fill="#34B009" fill-opacity="0.5" stroke="#34B009" stroke-width="0.407122"/>
<path d="M152.671 43.202C152.671 42.3589 153.354 41.6753 154.197 41.6753V41.6753C155.041 41.6753 155.724 42.3589 155.724 43.202V101.726H152.671V43.202Z" fill="#8099FF"/>
<path d="M156.459 72.589C156.459 71.8175 157.085 71.192 157.856 71.192V71.192C158.628 71.192 159.253 71.8175 159.253 72.589V101.726H156.459V72.589Z" fill="#8099FF"/>
<path d="M166.704 93.9628C166.704 93.1913 167.329 92.5659 168.101 92.5659V92.5659C168.872 92.5659 169.498 93.1913 169.498 93.9628V101.726H166.704V93.9628Z" fill="#8099FF"/>
<path d="M190.917 85.8205C190.917 85.0489 191.543 84.4235 192.314 84.4235V84.4235C193.086 84.4235 193.711 85.0489 193.711 85.8205V101.726H190.917V85.8205Z" fill="#8099FF"/>
<path d="M194.643 68.5176C194.643 67.7461 195.268 67.1206 196.04 67.1206V67.1206C196.811 67.1206 197.437 67.7461 197.437 68.5176V101.726H194.643V68.5176Z" fill="#8099FF"/>
<path d="M198.368 92.9452C198.368 92.1737 198.994 91.5483 199.765 91.5483V91.5483C200.537 91.5483 201.162 92.1737 201.162 92.9452V101.726H198.368V92.9452Z" fill="#8099FF"/>
<path d="M202.093 95.9986C202.093 95.227 202.718 94.6016 203.49 94.6016V94.6016C204.261 94.6016 204.887 95.227 204.887 95.9986V101.726H202.093V95.9986Z" fill="#8099FF"/>
<path d="M217.925 93.9628C217.925 93.1913 218.551 92.5659 219.322 92.5659V92.5659C220.094 92.5659 220.719 93.1913 220.719 93.9628V101.726H217.925V93.9628Z" fill="#8099FF"/>
<path d="M234.689 93.9628C234.689 93.1913 235.315 92.5659 236.086 92.5659V92.5659C236.858 92.5659 237.483 93.1913 237.483 93.9628V101.726H234.689V93.9628Z" fill="#8099FF"/>
<path d="M255.177 77.6781C255.177 76.9066 255.803 76.2811 256.574 76.2811V76.2811C257.346 76.2811 257.971 76.9066 257.971 77.6781V101.726H255.177V77.6781Z" fill="#8099FF"/>
<path d="M258.903 94.98C258.903 94.2085 259.528 93.583 260.3 93.583V93.583C261.071 93.583 261.697 94.2085 261.697 94.98V101.725H258.903V94.98Z" fill="#8099FF"/>
<path d="M262.628 69.5352C262.628 68.7637 263.254 68.1382 264.025 68.1382V68.1382C264.797 68.1382 265.422 68.7637 265.422 69.5352V101.726H262.628V69.5352Z" fill="#FF0000" fill-opacity="0.42"/>
<path d="M266.353 31.8766C266.353 31.105 266.979 30.4796 267.75 30.4796V30.4796C268.522 30.4796 269.147 31.105 269.147 31.8766V101.726H266.353V31.8766Z" fill="#FF0000" fill-opacity="0.42"/>
<path d="M270.078 61.3928C270.078 60.6213 270.704 59.9958 271.475 59.9958V59.9958C272.247 59.9958 272.872 60.6213 272.872 61.3928V101.726H270.078V61.3928Z" fill="#FF0000" fill-opacity="0.42"/>
<path d="M273.804 73.6066C273.804 72.8351 274.429 72.2097 275.201 72.2097V72.2097C275.972 72.2097 276.598 72.8351 276.598 73.6066V101.726H273.804V73.6066Z" fill="#FF0000" fill-opacity="0.42"/>
<path d="M262.594 79.843C262.594 78.9999 263.277 78.3163 264.12 78.3163V78.3163C264.963 78.3163 265.647 78.9999 265.647 79.843V101.726H262.594V79.843Z" fill="#8099FF"/>
<path d="M266.665 53.8889C266.665 53.3267 267.12 52.8711 267.682 52.8711V52.8711C268.245 52.8711 268.7 53.3267 268.7 53.8889V101.726H266.665V53.8889Z" fill="#8099FF"/>
<path d="M269.718 74.754C269.718 73.9108 270.402 73.2273 271.245 73.2273V73.2273C272.088 73.2273 272.772 73.9108 272.772 74.754V101.726H269.718V74.754Z" fill="#8099FF"/>
<path d="M273.789 82.8969C273.789 82.0537 274.473 81.3702 275.316 81.3702V81.3702C276.159 81.3702 276.843 82.0537 276.843 82.8969V101.726H273.789V82.8969Z" fill="#8099FF"/>
<path d="M293.361 92.9452C293.361 92.1737 293.986 91.5483 294.758 91.5483V91.5483C295.529 91.5483 296.155 92.1737 296.155 92.9452V101.726H293.361V92.9452Z" fill="#8099FF"/>
<path d="M227.402 11.9636V3.6563H228.197V11.9636H227.402ZM232.905 12.0196C232.293 12.0196 231.756 11.8927 231.293 11.6389C230.83 11.3777 230.468 11.0232 230.207 10.5753C229.946 10.12 229.815 9.6013 229.815 9.01912C229.815 8.43693 229.938 7.92192 230.185 7.47409C230.438 7.02625 230.782 6.67545 231.215 6.42168C231.655 6.16044 232.148 6.02982 232.692 6.02982C233.245 6.02982 233.734 6.15671 234.159 6.41048C234.592 6.65679 234.932 7.00759 235.178 7.46289C235.424 7.91073 235.547 8.42947 235.547 9.01912C235.547 9.05643 235.544 9.09749 235.536 9.14227C235.536 9.17959 235.536 9.22064 235.536 9.26542H230.42V8.67204H235.111L234.797 8.90716C234.797 8.48171 234.704 8.10479 234.517 7.77638C234.338 7.4405 234.092 7.17926 233.778 6.99267C233.465 6.80607 233.103 6.71277 232.692 6.71277C232.289 6.71277 231.927 6.80607 231.607 6.99267C231.286 7.17926 231.036 7.4405 230.856 7.77638C230.677 8.11225 230.588 8.49664 230.588 8.92955V9.0527C230.588 9.50054 230.685 9.89612 230.879 10.2395C231.08 10.5753 231.356 10.8403 231.707 11.0344C232.066 11.221 232.472 11.3143 232.928 11.3143C233.286 11.3143 233.618 11.2508 233.924 11.1239C234.238 10.997 234.506 10.803 234.73 10.5418L235.178 11.0568C234.917 11.3702 234.588 11.6091 234.193 11.7733C233.805 11.9375 233.375 12.0196 232.905 12.0196ZM238.744 12.0196C238.259 12.0196 237.8 11.9524 237.367 11.8181C236.934 11.6763 236.594 11.5009 236.348 11.2919L236.706 10.6649C236.945 10.844 237.251 11.0008 237.624 11.1351C237.998 11.262 238.389 11.3255 238.8 11.3255C239.36 11.3255 239.763 11.2396 240.009 11.068C240.255 10.8888 240.379 10.6537 240.379 10.3626C240.379 10.1462 240.308 9.97823 240.166 9.8588C240.032 9.73192 239.852 9.63862 239.629 9.57891C239.405 9.51173 239.155 9.45575 238.878 9.41097C238.602 9.36619 238.326 9.31394 238.05 9.25423C237.781 9.19452 237.535 9.10868 237.311 8.99672C237.087 8.8773 236.904 8.71683 236.762 8.5153C236.628 8.31378 236.561 8.04508 236.561 7.7092C236.561 7.38825 236.65 7.10089 236.83 6.84712C237.009 6.59335 237.27 6.39555 237.613 6.25374C237.964 6.10446 238.389 6.02982 238.89 6.02982C239.27 6.02982 239.651 6.08207 240.032 6.18657C240.412 6.2836 240.726 6.41421 240.972 6.57842L240.625 7.21658C240.364 7.03745 240.084 6.91056 239.785 6.83592C239.487 6.75382 239.188 6.71277 238.89 6.71277C238.36 6.71277 237.968 6.80607 237.714 6.99267C237.468 7.1718 237.345 7.40318 237.345 7.68681C237.345 7.91073 237.412 8.08613 237.546 8.21301C237.688 8.3399 237.871 8.44066 238.095 8.5153C238.326 8.58248 238.576 8.63846 238.845 8.68324C239.121 8.72802 239.393 8.784 239.662 8.85118C239.938 8.91089 240.188 8.99672 240.412 9.10868C240.644 9.21318 240.826 9.36619 240.961 9.56771C241.103 9.76177 241.174 10.0193 241.174 10.3402C241.174 10.6836 241.076 10.9821 240.882 11.2359C240.696 11.4822 240.42 11.6763 240.054 11.8181C239.696 11.9524 239.259 12.0196 238.744 12.0196ZM244.211 12.0196C243.726 12.0196 243.267 11.9524 242.834 11.8181C242.401 11.6763 242.061 11.5009 241.815 11.2919L242.173 10.6649C242.412 10.844 242.718 11.0008 243.091 11.1351C243.464 11.262 243.856 11.3255 244.267 11.3255C244.827 11.3255 245.23 11.2396 245.476 11.068C245.722 10.8888 245.845 10.6537 245.845 10.3626C245.845 10.1462 245.774 9.97823 245.633 9.8588C245.498 9.73192 245.319 9.63862 245.095 9.57891C244.871 9.51173 244.621 9.45575 244.345 9.41097C244.069 9.36619 243.793 9.31394 243.517 9.25423C243.248 9.19452 243.002 9.10868 242.778 8.99672C242.554 8.8773 242.371 8.71683 242.229 8.5153C242.095 8.31378 242.028 8.04508 242.028 7.7092C242.028 7.38825 242.117 7.10089 242.296 6.84712C242.475 6.59335 242.737 6.39555 243.08 6.25374C243.431 6.10446 243.856 6.02982 244.356 6.02982C244.737 6.02982 245.118 6.08207 245.498 6.18657C245.879 6.2836 246.192 6.41421 246.439 6.57842L246.092 7.21658C245.83 7.03745 245.551 6.91056 245.252 6.83592C244.953 6.75382 244.655 6.71277 244.356 6.71277C243.826 6.71277 243.435 6.80607 243.181 6.99267C242.934 7.1718 242.811 7.40318 242.811 7.68681C242.811 7.91073 242.878 8.08613 243.013 8.21301C243.155 8.3399 243.337 8.44066 243.561 8.5153C243.793 8.58248 244.043 8.63846 244.312 8.68324C244.588 8.72802 244.86 8.784 245.129 8.85118C245.405 8.91089 245.655 8.99672 245.879 9.10868C246.11 9.21318 246.293 9.36619 246.428 9.56771C246.569 9.76177 246.64 10.0193 246.64 10.3402C246.64 10.6836 246.543 10.9821 246.349 11.2359C246.163 11.4822 245.886 11.6763 245.521 11.8181C245.162 11.9524 244.726 12.0196 244.211 12.0196ZM252.888 12.0196C252.335 12.0196 251.91 11.8703 251.611 11.5718C251.313 11.2732 251.163 10.8515 251.163 10.3066V4.78709H251.958V10.2619C251.958 10.6052 252.044 10.8702 252.216 11.0568C252.395 11.2434 252.649 11.3367 252.977 11.3367C253.328 11.3367 253.619 11.2359 253.85 11.0344L254.13 11.6054C253.974 11.7472 253.783 11.8517 253.559 11.9188C253.343 11.986 253.119 12.0196 252.888 12.0196ZM250.111 6.74636V6.0858H253.75V6.74636H250.111ZM258.578 6.02982C259.056 6.02982 259.473 6.12312 259.832 6.30972C260.197 6.48885 260.481 6.76502 260.683 7.13821C260.892 7.51141 260.996 7.98163 260.996 8.54889V11.9636H260.201V8.62726C260.201 8.00776 260.044 7.54126 259.731 7.22778C259.425 6.90683 258.992 6.74636 258.432 6.74636C258.014 6.74636 257.649 6.83219 257.335 7.00386C257.029 7.16807 256.79 7.41065 256.619 7.73159C256.454 8.04508 256.372 8.42574 256.372 8.87357V11.9636H255.577V3.6563H256.372V7.69801L256.215 7.39572C256.402 6.97028 256.701 6.63813 257.111 6.39929C257.522 6.15298 258.011 6.02982 258.578 6.02982ZM265.64 12.0196C265.028 12.0196 264.491 11.8927 264.028 11.6389C263.565 11.3777 263.203 11.0232 262.942 10.5753C262.681 10.12 262.55 9.6013 262.55 9.01912C262.55 8.43693 262.673 7.92192 262.919 7.47409C263.173 7.02625 263.516 6.67545 263.949 6.42168C264.39 6.16044 264.882 6.02982 265.427 6.02982C265.98 6.02982 266.468 6.15671 266.894 6.41048C267.327 6.65679 267.666 7.00759 267.913 7.46289C268.159 7.91073 268.282 8.42947 268.282 9.01912C268.282 9.05643 268.278 9.09749 268.271 9.14227C268.271 9.17959 268.271 9.22064 268.271 9.26542H263.154V8.67204H267.846L267.532 8.90716C267.532 8.48171 267.439 8.10479 267.252 7.77638C267.073 7.4405 266.827 7.17926 266.513 6.99267C266.2 6.80607 265.838 6.71277 265.427 6.71277C265.024 6.71277 264.662 6.80607 264.341 6.99267C264.02 7.17926 263.77 7.4405 263.591 7.77638C263.412 8.11225 263.322 8.49664 263.322 8.92955V9.0527C263.322 9.50054 263.419 9.89612 263.614 10.2395C263.815 10.5753 264.091 10.8403 264.442 11.0344C264.8 11.221 265.207 11.3143 265.662 11.3143C266.021 11.3143 266.353 11.2508 266.659 11.1239C266.972 10.997 267.241 10.803 267.465 10.5418L267.913 11.0568C267.651 11.3702 267.323 11.6091 266.927 11.7733C266.539 11.9375 266.11 12.0196 265.64 12.0196ZM272.901 6.02982C273.378 6.02982 273.796 6.12312 274.155 6.30972C274.52 6.48885 274.804 6.76502 275.005 7.13821C275.214 7.51141 275.319 7.98163 275.319 8.54889V11.9636H274.524V8.62726C274.524 8.00776 274.367 7.54126 274.054 7.22778C273.748 6.90683 273.315 6.74636 272.755 6.74636C272.337 6.74636 271.971 6.83219 271.658 7.00386C271.352 7.16807 271.113 7.41065 270.941 7.73159C270.777 8.04508 270.695 8.42574 270.695 8.87357V11.9636H269.9V6.0858H270.661V7.69801L270.538 7.39572C270.725 6.97028 271.023 6.63813 271.434 6.39929C271.844 6.15298 272.333 6.02982 272.901 6.02982ZM282.21 12.0308C281.643 12.0308 281.105 11.9412 280.598 11.7621C280.098 11.5755 279.695 11.3292 279.389 11.0232L279.78 10.385C280.034 10.6462 280.374 10.8627 280.799 11.0344C281.232 11.206 281.702 11.2919 282.21 11.2919C282.859 11.2919 283.356 11.1501 283.699 10.8664C284.05 10.5828 284.225 10.2021 284.225 9.72445C284.225 9.24676 284.054 8.86611 283.71 8.58248C283.374 8.29885 282.841 8.15704 282.109 8.15704H281.549V7.56366L283.968 4.52958L284.08 4.84306H279.713V4.12653H284.751V4.69752L282.333 7.73159L281.941 7.47409H282.244C283.184 7.47409 283.886 7.68308 284.348 8.10106C284.819 8.51903 285.054 9.05643 285.054 9.71326C285.054 10.1536 284.949 10.5492 284.74 10.9C284.531 11.2508 284.214 11.527 283.789 11.7285C283.371 11.93 282.844 12.0308 282.21 12.0308ZM285.989 11.9636V11.3926L289.247 8.20182C289.546 7.91073 289.77 7.65695 289.919 7.4405C290.068 7.21658 290.169 7.00759 290.221 6.81353C290.274 6.61947 290.3 6.43661 290.3 6.26494C290.3 5.80964 290.143 5.45137 289.83 5.19014C289.524 4.9289 289.068 4.79828 288.464 4.79828C288.001 4.79828 287.59 4.86919 287.232 5.011C286.881 5.15282 286.579 5.373 286.325 5.67156L285.754 5.17894C286.06 4.82067 286.452 4.54451 286.93 4.35045C287.408 4.15639 287.941 4.05936 288.531 4.05936C289.061 4.05936 289.52 4.14519 289.908 4.31686C290.296 4.48107 290.595 4.72364 290.804 5.04459C291.02 5.36554 291.128 5.74246 291.128 6.17537C291.128 6.42914 291.091 6.67918 291.016 6.92549C290.949 7.1718 290.822 7.43304 290.636 7.7092C290.457 7.9779 290.192 8.28392 289.841 8.62726L286.851 11.5606L286.628 11.2471H291.487V11.9636H285.989ZM295.6 12.0308C294.995 12.0308 294.458 11.8741 293.988 11.5606C293.518 11.2396 293.148 10.7843 292.879 10.1947C292.611 9.59757 292.476 8.88103 292.476 8.04508C292.476 7.20912 292.611 6.49632 292.879 5.90667C293.148 5.30956 293.518 4.85426 293.988 4.54078C294.458 4.21983 294.995 4.05936 295.6 4.05936C296.205 4.05936 296.742 4.21983 297.212 4.54078C297.682 4.85426 298.052 5.30956 298.321 5.90667C298.597 6.49632 298.735 7.20912 298.735 8.04508C298.735 8.88103 298.597 9.59757 298.321 10.1947C298.052 10.7843 297.682 11.2396 297.212 11.5606C296.742 11.8741 296.205 12.0308 295.6 12.0308ZM295.6 11.2919C296.063 11.2919 296.466 11.1687 296.809 10.9224C297.152 10.6686 297.421 10.3029 297.615 9.82522C297.809 9.34006 297.906 8.74668 297.906 8.04508C297.906 7.34347 297.809 6.75382 297.615 6.27613C297.421 5.79098 297.152 5.42525 296.809 5.17894C296.466 4.92517 296.063 4.79828 295.6 4.79828C295.152 4.79828 294.753 4.92517 294.402 5.17894C294.051 5.42525 293.779 5.79098 293.585 6.27613C293.391 6.75382 293.294 7.34347 293.294 8.04508C293.294 8.74668 293.391 9.34006 293.585 9.82522C293.779 10.3029 294.051 10.6686 294.402 10.9224C294.753 11.1687 295.152 11.2919 295.6 11.2919ZM302.856 12.0196C302.274 12.0196 301.751 11.8927 301.289 11.6389C300.833 11.3777 300.475 11.0232 300.214 10.5753C299.953 10.12 299.822 9.6013 299.822 9.01912C299.822 8.42947 299.953 7.91073 300.214 7.46289C300.475 7.01506 300.833 6.66426 301.289 6.41048C301.751 6.15671 302.274 6.02982 302.856 6.02982C303.356 6.02982 303.808 6.12685 304.211 6.32092C304.614 6.51498 304.931 6.80607 305.162 7.19419L304.569 7.59724C304.368 7.29869 304.117 7.0785 303.819 6.93669C303.52 6.79487 303.196 6.72397 302.845 6.72397C302.427 6.72397 302.05 6.821 301.714 7.01506C301.378 7.20166 301.113 7.46662 300.919 7.80996C300.725 8.1533 300.628 8.55635 300.628 9.01912C300.628 9.48188 300.725 9.88493 300.919 10.2283C301.113 10.5716 301.378 10.8403 301.714 11.0344C302.05 11.221 302.427 11.3143 302.845 11.3143C303.196 11.3143 303.52 11.2434 303.819 11.1015C304.117 10.9597 304.368 10.7433 304.569 10.4522L305.162 10.8552C304.931 11.2359 304.614 11.527 304.211 11.7285C303.808 11.9226 303.356 12.0196 302.856 12.0196ZM310.407 11.9636V10.6649L310.374 10.4522V8.28019C310.374 7.78011 310.232 7.39572 309.948 7.12702C309.672 6.85832 309.258 6.72397 308.706 6.72397C308.325 6.72397 307.963 6.78741 307.62 6.9143C307.276 7.04118 306.985 7.20912 306.746 7.41811L306.388 6.82473C306.687 6.57096 307.045 6.3769 307.463 6.24255C307.881 6.10073 308.321 6.02982 308.784 6.02982C309.545 6.02982 310.131 6.22015 310.542 6.60081C310.96 6.97401 311.169 7.545 311.169 8.31378V11.9636H310.407ZM308.381 12.0196C307.941 12.0196 307.556 11.9487 307.228 11.8069C306.907 11.6576 306.661 11.4561 306.489 11.2023C306.317 10.9411 306.231 10.6425 306.231 10.3066C306.231 10.0006 306.302 9.72445 306.444 9.47814C306.593 9.22437 306.832 9.02285 307.161 8.87357C307.496 8.71683 307.944 8.63846 308.504 8.63846H310.531V9.23184H308.527C307.959 9.23184 307.564 9.3326 307.34 9.53412C307.123 9.73565 307.015 9.98569 307.015 10.2842C307.015 10.6201 307.146 10.8888 307.407 11.0903C307.668 11.2919 308.034 11.3926 308.504 11.3926C308.952 11.3926 309.336 11.2919 309.657 11.0903C309.986 10.8814 310.225 10.5828 310.374 10.1947L310.553 10.7433C310.404 11.1314 310.142 11.4412 309.769 11.6725C309.404 11.9039 308.941 12.0196 308.381 12.0196ZM313.328 11.9636V3.6563H314.123V11.9636H313.328Z" fill="#2C2B2B"/>
<path d="M135.333 12.0308C134.736 12.0308 134.184 11.9338 133.676 11.7397C133.176 11.5382 132.74 11.2583 132.366 10.9C132.001 10.5418 131.713 10.12 131.504 9.63489C131.303 9.14973 131.202 8.6198 131.202 8.04508C131.202 7.47036 131.303 6.94042 131.504 6.45527C131.713 5.97011 132.004 5.5484 132.378 5.19014C132.751 4.83187 133.187 4.5557 133.688 4.36164C134.195 4.16012 134.747 4.05936 135.345 4.05936C135.942 4.05936 136.487 4.15265 136.979 4.33925C137.479 4.52585 137.905 4.80948 138.255 5.19014L137.74 5.71634C137.412 5.38793 137.05 5.15282 136.654 5.011C136.259 4.86919 135.833 4.79828 135.378 4.79828C134.893 4.79828 134.445 4.88038 134.035 5.04459C133.632 5.20133 133.277 5.42898 132.971 5.72754C132.672 6.01863 132.437 6.36197 132.266 6.75755C132.101 7.14568 132.019 7.57485 132.019 8.04508C132.019 8.50784 132.101 8.93701 132.266 9.3326C132.437 9.72819 132.672 10.0753 132.971 10.3738C133.277 10.6649 133.632 10.8926 134.035 11.0568C134.445 11.2135 134.889 11.2919 135.367 11.2919C135.815 11.2919 136.236 11.2247 136.632 11.0903C137.035 10.956 137.405 10.7283 137.74 10.4074L138.211 11.0344C137.837 11.3628 137.401 11.6128 136.901 11.7845C136.401 11.9487 135.878 12.0308 135.333 12.0308ZM137.416 10.9336V8.04508H138.211V11.0344L137.416 10.9336ZM142.783 12.0196C142.216 12.0196 141.705 11.8927 141.25 11.6389C140.802 11.3777 140.447 11.0232 140.186 10.5753C139.925 10.12 139.794 9.6013 139.794 9.01912C139.794 8.42947 139.925 7.91073 140.186 7.46289C140.447 7.01506 140.802 6.66426 141.25 6.41048C141.697 6.15671 142.209 6.02982 142.783 6.02982C143.366 6.02982 143.881 6.15671 144.329 6.41048C144.784 6.66426 145.138 7.01506 145.392 7.46289C145.653 7.91073 145.784 8.42947 145.784 9.01912C145.784 9.6013 145.653 10.12 145.392 10.5753C145.138 11.0232 144.784 11.3777 144.329 11.6389C143.873 11.8927 143.358 12.0196 142.783 12.0196ZM142.783 11.3143C143.209 11.3143 143.586 11.221 143.914 11.0344C144.243 10.8403 144.5 10.5716 144.687 10.2283C144.881 9.87746 144.978 9.47441 144.978 9.01912C144.978 8.55635 144.881 8.1533 144.687 7.80996C144.5 7.46662 144.243 7.20166 143.914 7.01506C143.586 6.821 143.213 6.72397 142.795 6.72397C142.377 6.72397 142.004 6.821 141.675 7.01506C141.347 7.20166 141.085 7.46662 140.891 7.80996C140.697 8.1533 140.6 8.55635 140.6 9.01912C140.6 9.47441 140.697 9.87746 140.891 10.2283C141.085 10.5716 141.347 10.8403 141.675 11.0344C142.004 11.221 142.373 11.3143 142.783 11.3143ZM149.803 12.0196C149.236 12.0196 148.724 11.8927 148.269 11.6389C147.821 11.3777 147.467 11.0232 147.205 10.5753C146.944 10.12 146.813 9.6013 146.813 9.01912C146.813 8.42947 146.944 7.91073 147.205 7.46289C147.467 7.01506 147.821 6.66426 148.269 6.41048C148.717 6.15671 149.228 6.02982 149.803 6.02982C150.385 6.02982 150.9 6.15671 151.348 6.41048C151.803 6.66426 152.158 7.01506 152.411 7.46289C152.673 7.91073 152.803 8.42947 152.803 9.01912C152.803 9.6013 152.673 10.12 152.411 10.5753C152.158 11.0232 151.803 11.3777 151.348 11.6389C150.892 11.8927 150.377 12.0196 149.803 12.0196ZM149.803 11.3143C150.228 11.3143 150.605 11.221 150.934 11.0344C151.262 10.8403 151.519 10.5716 151.706 10.2283C151.9 9.87746 151.997 9.47441 151.997 9.01912C151.997 8.55635 151.9 8.1533 151.706 7.80996C151.519 7.46662 151.262 7.20166 150.934 7.01506C150.605 6.821 150.232 6.72397 149.814 6.72397C149.396 6.72397 149.023 6.821 148.694 7.01506C148.366 7.20166 148.105 7.46662 147.911 7.80996C147.717 8.1533 147.62 8.55635 147.62 9.01912C147.62 9.47441 147.717 9.87746 147.911 10.2283C148.105 10.5716 148.366 10.8403 148.694 11.0344C149.023 11.221 149.392 11.3143 149.803 11.3143ZM156.766 12.0196C156.206 12.0196 155.702 11.8927 155.255 11.6389C154.814 11.3852 154.467 11.0344 154.213 10.5865C153.96 10.1312 153.833 9.60876 153.833 9.01912C153.833 8.422 153.96 7.89953 154.213 7.4517C154.467 7.00386 154.814 6.65679 155.255 6.41048C155.702 6.15671 156.206 6.02982 156.766 6.02982C157.281 6.02982 157.74 6.14551 158.143 6.3769C158.554 6.60828 158.878 6.94788 159.117 7.39572C159.363 7.83609 159.487 8.37722 159.487 9.01912C159.487 9.65355 159.367 10.1947 159.128 10.6425C158.89 11.0903 158.565 11.4337 158.154 11.6725C157.751 11.9039 157.289 12.0196 156.766 12.0196ZM156.822 11.3143C157.24 11.3143 157.613 11.221 157.942 11.0344C158.277 10.8403 158.539 10.5716 158.725 10.2283C158.919 9.87746 159.016 9.47441 159.016 9.01912C159.016 8.55635 158.919 8.1533 158.725 7.80996C158.539 7.46662 158.277 7.20166 157.942 7.01506C157.613 6.821 157.24 6.72397 156.822 6.72397C156.412 6.72397 156.042 6.821 155.714 7.01506C155.385 7.20166 155.124 7.46662 154.93 7.80996C154.736 8.1533 154.639 8.55635 154.639 9.01912C154.639 9.47441 154.736 9.87746 154.93 10.2283C155.124 10.5716 155.385 10.8403 155.714 11.0344C156.042 11.221 156.412 11.3143 156.822 11.3143ZM159.039 11.9636V10.1947L159.117 9.00792L159.005 7.82116V3.6563H159.8V11.9636H159.039ZM164.071 14.1916C163.832 14.1916 163.604 14.158 163.388 14.0908C163.164 14.0311 162.977 13.9378 162.828 13.8109L163.108 13.2064C163.347 13.4079 163.653 13.5086 164.026 13.5086C164.34 13.5086 164.578 13.4154 164.743 13.2288C164.914 13.0422 165 12.766 165 12.4003V6.0858H165.795V12.4003C165.795 12.9451 165.646 13.378 165.347 13.699C165.056 14.0274 164.631 14.1916 164.071 14.1916ZM165.403 4.78709C165.239 4.78709 165.101 4.73111 164.989 4.61915C164.877 4.50719 164.821 4.37284 164.821 4.2161C164.821 4.05935 164.877 3.92874 164.989 3.82424C165.101 3.71228 165.239 3.6563 165.403 3.6563C165.567 3.6563 165.705 3.70855 165.817 3.81305C165.929 3.91754 165.985 4.04816 165.985 4.2049C165.985 4.36911 165.929 4.50719 165.817 4.61915C165.713 4.73111 165.575 4.78709 165.403 4.78709ZM170.412 12.0196C169.845 12.0196 169.334 11.8927 168.878 11.6389C168.431 11.3777 168.076 11.0232 167.815 10.5753C167.554 10.12 167.423 9.6013 167.423 9.01912C167.423 8.42947 167.554 7.91073 167.815 7.46289C168.076 7.01506 168.431 6.66426 168.878 6.41048C169.326 6.15671 169.838 6.02982 170.412 6.02982C170.994 6.02982 171.509 6.15671 171.957 6.41048C172.413 6.66426 172.767 7.01506 173.021 7.46289C173.282 7.91073 173.413 8.42947 173.413 9.01912C173.413 9.6013 173.282 10.12 173.021 10.5753C172.767 11.0232 172.413 11.3777 171.957 11.6389C171.502 11.8927 170.987 12.0196 170.412 12.0196ZM170.412 11.3143C170.838 11.3143 171.215 11.221 171.543 11.0344C171.871 10.8403 172.129 10.5716 172.316 10.2283C172.51 9.87746 172.607 9.47441 172.607 9.01912C172.607 8.55635 172.51 8.1533 172.316 7.80996C172.129 7.46662 171.871 7.20166 171.543 7.01506C171.215 6.821 170.841 6.72397 170.424 6.72397C170.006 6.72397 169.632 6.821 169.304 7.01506C168.976 7.20166 168.714 7.46662 168.52 7.80996C168.326 8.1533 168.229 8.55635 168.229 9.01912C168.229 9.47441 168.326 9.87746 168.52 10.2283C168.714 10.5716 168.976 10.8403 169.304 11.0344C169.632 11.221 170.002 11.3143 170.412 11.3143ZM178.07 12.0196C177.555 12.0196 177.092 11.9039 176.681 11.6725C176.271 11.4337 175.946 11.0903 175.707 10.6425C175.469 10.1947 175.349 9.65355 175.349 9.01912C175.349 8.37722 175.469 7.83609 175.707 7.39572C175.954 6.94788 176.282 6.60828 176.693 6.3769C177.103 6.14551 177.562 6.02982 178.07 6.02982C178.63 6.02982 179.13 6.15671 179.57 6.41048C180.018 6.65679 180.369 7.00386 180.622 7.4517C180.876 7.89953 181.003 8.422 181.003 9.01912C181.003 9.60876 180.876 10.1312 180.622 10.5865C180.369 11.0344 180.018 11.3852 179.57 11.6389C179.13 11.8927 178.63 12.0196 178.07 12.0196ZM175.036 11.9636V3.6563H175.831V7.82116L175.719 9.00792L175.797 10.1947V11.9636H175.036ZM178.014 11.3143C178.432 11.3143 178.805 11.221 179.133 11.0344C179.462 10.8403 179.723 10.5716 179.917 10.2283C180.111 9.87746 180.208 9.47441 180.208 9.01912C180.208 8.55635 180.111 8.1533 179.917 7.80996C179.723 7.46662 179.462 7.20166 179.133 7.01506C178.805 6.821 178.432 6.72397 178.014 6.72397C177.596 6.72397 177.219 6.821 176.883 7.01506C176.555 7.20166 176.293 7.46662 176.099 7.80996C175.913 8.1533 175.819 8.55635 175.819 9.01912C175.819 9.47441 175.913 9.87746 176.099 10.2283C176.293 10.5716 176.555 10.8403 176.883 11.0344C177.219 11.221 177.596 11.3143 178.014 11.3143Z" fill="#2C2B2B"/>
</svg>
